<svg width="200" height="200" viewBox="0 0 200 200" fill="none" xmlns="http://www.w3.org/2000/svg">
<g clip-path="url(#clip0_2_792)">
<mask id="mask0_2_792" style="mask-type:luminance" maskUnits="userSpaceOnUse" x="0" y="0" width="200" height="200">
<path d="M200 0H0V200H200V0Z" fill="white"/>
</mask>
<g mask="url(#mask0_2_792)">
<path fill-rule="evenodd" clip-rule="evenodd" d="M99.9942 183.711C106.781 191.856 113.567 200 127.14 200C158.384 200 167.409 158.444 167.421 127.156C167.421 113.584 175.565 106.798 183.71 100.012C191.855 93.2255 200 86.4395 200 72.8675C200 41.6139 158.384 32.5774 127.151 32.5774C113.579 32.5774 106.792 24.4331 100.006 16.2887C93.2194 8.14435 86.433 0 72.8602 0C41.6048 0 32.5678 41.6139 32.5678 72.8445C32.5678 86.4165 24.4259 93.2025 16.2839 99.9885C8.14196 106.775 0 113.561 0 127.133C0 158.386 41.6048 167.423 72.8487 167.423C86.4215 167.423 93.2079 175.567 99.9942 183.711ZM100 137C120.435 137 137 120.435 137 100C137 79.5655 120.435 63 100 63C79.5655 63 63 79.5655 63 100C63 120.435 79.5655 137 100 137Z" fill="url(#paint0_linear_2_792)"/>
</g>
</g>
<defs>
<linearGradient id="paint0_linear_2_792" x1="100" y1="0" x2="100" y2="200" gradientUnits="userSpaceOnUse">
<stop stop-color="#DF99F7"/>
<stop offset="1" stop-color="#FFDBB0"/>
</linearGradient>
<clipPath id="clip0_2_792">
<rect width="200" height="200" fill="white"/>
</clipPath>
</defs>
</svg>
