<svg width="200" height="200" viewBox="0 0 200 200" fill="none" xmlns="http://www.w3.org/2000/svg">
<g clip-path="url(#clip0_2_760)">
<mask id="mask0_2_760" style="mask-type:luminance" maskUnits="userSpaceOnUse" x="0" y="0" width="200" height="200">
<path d="M200 0H0V200H200V0Z" fill="white"/>
</mask>
<g mask="url(#mask0_2_760)">
<path fill-rule="evenodd" clip-rule="evenodd" d="M18.4294 66.2123C15.6458 53.315 19.2658 39.3128 29.2893 29.2893C39.3129 19.2658 53.315 15.6458 66.2123 18.4293C73.3638 7.34131 85.8246 0 100 0C114.175 0 126.636 7.34133 133.788 18.4294C146.685 15.6458 160.687 19.2658 170.711 29.2893C180.734 39.3129 184.354 53.315 181.571 66.2123C192.659 73.3638 200 85.8246 200 100C200 114.175 192.659 126.636 181.571 133.788C184.354 146.685 180.734 160.687 170.711 170.711C160.687 180.734 146.685 184.354 133.788 181.571C126.636 192.659 114.175 200 100 200C85.8246 200 73.3639 192.659 66.2123 181.571C53.315 184.354 39.3129 180.734 29.2893 170.711C19.2658 160.687 15.6458 146.685 18.4294 133.788C7.34132 126.636 0 114.175 0 100C0 85.8246 7.34132 73.3638 18.4294 66.2123ZM71.4555 128.495C87.1454 144.184 112.584 144.184 128.274 128.495C143.964 112.805 143.964 87.3662 128.274 71.6762C112.584 55.9863 87.1454 55.9863 71.4555 71.6762C55.7656 87.3662 55.7656 112.805 71.4555 128.495Z" fill="url(#paint0_linear_2_760)"/>
</g>
</g>
<defs>
<linearGradient id="paint0_linear_2_760" x1="27.5" y1="19" x2="149" y2="174.5" gradientUnits="userSpaceOnUse">
<stop stop-color="#FFD9A0"/>
<stop offset="1" stop-color="#FFF5F1"/>
</linearGradient>
<clipPath id="clip0_2_760">
<rect width="200" height="200" fill="white"/>
</clipPath>
</defs>
</svg>
