<svg width="64" height="64" viewBox="0 0 64 64" fill="none" xmlns="http://www.w3.org/2000/svg">
<g clip-path="url(#clip0_199_9561)">
<path d="M0 32.0002C0 35.7335 0.666667 39.3335 1.8 42.6668H62.1333C63.3333 39.3335 64 35.7335 64 32.0002C64 28.2668 63.3333 24.6668 62.2 21.3335H1.8C0.666667 24.6668 0 28.2668 0 32.0002Z" fill="#FFD400"/>
<path d="M1.80078 21.3333H62.1341C57.8008 8.93333 45.9341 0 32.0008 0C18.0674 0 6.20078 8.93333 1.80078 21.3333Z" fill="#F0263C"/>
<path d="M62.2008 42.6665H1.80078C6.20078 55.0665 18.0674 63.9998 32.0008 63.9998C45.9341 63.9998 57.8008 55.0665 62.2008 42.6665Z" fill="#005B13"/>
<path d="M35.7337 34.2665L41.3337 29.9998H34.0003L32.0003 22.6665L30.0003 29.9998H22.667L28.267 34.2665L26.0003 41.3332L32.0003 36.9332L38.0003 41.3332L35.7337 34.2665Z" fill="black"/>
</g>
<defs>
<clipPath id="clip0_199_9561">
<rect width="64" height="64" fill="white"/>
</clipPath>
</defs>
</svg>
